<svg xmlns="http://www.w3.org/2000/svg" width="109" height="48" viewBox="0 0 109 48" fill="none">
  <path d="M29.798 2.09961L30.8073 3.11232H46.4057V46.562H16.5292C16.5398 46.4971 16.5504 46.4332 16.5611 46.3693C16.5908 46.1957 16.6194 46.0211 16.6491 45.8464C16.7319 45.3459 16.819 44.8284 16.9166 44.3268C16.9654 44.0766 17.0461 43.8796 17.1628 43.7262C17.2743 43.5814 17.4239 43.4994 17.6627 43.4515C18.1573 43.3514 18.6752 43.3759 19.2515 43.4153C19.4988 43.4323 19.7429 43.46 20.0019 43.4898C20.5241 43.5495 21.0632 43.6102 21.6215 43.5772C22.2657 43.5388 22.8144 43.4217 23.3005 43.2204C24.2663 42.8179 24.832 42.0586 24.9838 40.9607C25.074 40.2973 25.0029 39.6275 24.7715 38.9683C24.6208 38.5402 24.6898 38.2026 24.9933 37.8747C25.0337 37.8321 25.074 37.7895 25.1143 37.7479C25.2067 37.6532 25.3011 37.5552 25.3935 37.4423C25.7702 36.9759 25.8148 36.4307 25.524 35.9259C26.0918 35.5383 26.2616 34.9228 25.9761 34.254L25.9708 34.2412C25.8689 34.0006 25.7734 33.7738 25.7384 33.5597C25.7044 33.3531 25.7384 33.2179 26.0133 33.0997C26.0993 33.0635 26.198 33.0315 26.302 32.9996C26.3911 32.9708 26.4803 32.9421 26.5694 32.9091C26.6416 32.8824 26.7138 32.8569 26.787 32.8313C27.0205 32.7472 27.2635 32.6609 27.5013 32.5374C28.0712 32.2424 28.4533 31.8154 28.6061 31.3011C28.7579 30.7899 28.6719 30.2255 28.3578 29.6707C28.0871 29.1915 27.7921 28.723 27.5066 28.2693L27.3113 27.9584C26.874 27.263 26.4039 26.5165 25.9241 25.7732C25.7193 25.457 25.6705 25.1694 25.7639 24.8414L25.7968 24.7254C25.9188 24.3015 26.0441 23.8628 26.1258 23.4134C26.1927 23.0482 26.216 22.6531 26.1958 22.2367C26.0982 20.2422 25.6567 18.2455 24.8851 16.3021C24.3183 14.8719 23.6232 13.6473 22.7614 12.5579C21.7902 11.3344 20.5549 10.3578 18.9841 9.57089C17.8622 9.00863 16.6428 8.58054 15.2577 8.26107C13.2274 7.79465 11.126 7.59765 8.83136 7.65729C6.91354 7.70734 5.21434 8.00124 3.63614 8.55498C3.45677 8.61781 3.27846 8.68383 3.10228 8.75305V3.11232H23.9575L22.9482 2.09961H2.09296V10.3014L2.80617 9.97768C3.1787 9.80836 3.56927 9.65075 3.9694 9.51125C5.44677 8.99265 7.0462 8.71792 8.85684 8.67C11.0655 8.61143 13.0852 8.80098 15.0317 9.24929C16.3382 9.54959 17.4834 9.95106 18.533 10.4771C19.969 11.197 21.094 12.084 21.9707 13.1883C22.7699 14.1989 23.4173 15.3394 23.9469 16.6769C24.6781 18.516 25.0952 20.404 25.1876 22.2878C25.2035 22.6243 25.1854 22.9417 25.1324 23.2313C25.0602 23.6317 24.9466 24.0268 24.8267 24.4453L24.7928 24.5624C24.6187 25.1716 24.7142 25.7647 25.0772 26.3248C25.5537 27.0628 26.0218 27.8061 26.4559 28.4983L26.6522 28.8103C26.9313 29.2544 27.22 29.7123 27.48 30.1712C27.6021 30.3874 27.7284 30.7079 27.6382 31.0125C27.5469 31.3202 27.2614 31.5215 27.0396 31.6365C26.8613 31.7292 26.6607 31.8005 26.4484 31.8761C26.371 31.9038 26.2935 31.9315 26.2181 31.9592C26.146 31.9869 26.0727 32.0092 25.9984 32.0327C25.8764 32.071 25.7511 32.1115 25.6185 32.1668C24.9456 32.4565 24.6261 33.0241 24.7418 33.7237C24.7959 34.0581 24.9265 34.3658 25.0422 34.6374L25.0475 34.6512C25.161 34.9185 25.0942 35.0133 24.901 35.1219C24.8702 35.14 24.8395 35.1549 24.8076 35.1709C24.7609 35.1933 24.7153 35.2167 24.6686 35.2433C24.5009 35.337 24.3873 35.485 24.3491 35.6597C24.3098 35.8333 24.3491 36.0154 24.4627 36.1762C24.4892 36.2124 24.5179 36.2496 24.5455 36.2858C24.5699 36.3167 24.5943 36.3487 24.6166 36.3795C24.7344 36.5489 24.7323 36.6511 24.6102 36.8034C24.5465 36.8811 24.4712 36.9588 24.3916 37.0408C24.3449 37.0888 24.2992 37.1356 24.2547 37.1835C23.6943 37.7884 23.5436 38.5221 23.8195 39.3059C23.9968 39.8106 24.0519 40.3207 23.983 40.8223C23.8821 41.5581 23.5414 42.0224 22.9131 42.2844C22.5279 42.4441 22.0991 42.5336 21.561 42.5655C21.0919 42.5943 20.6175 42.5399 20.1165 42.4824C19.8576 42.4537 19.5901 42.4228 19.3205 42.4036C18.6699 42.36 18.0809 42.3334 17.4642 42.458C16.9856 42.5538 16.6258 42.7668 16.3626 43.1097C16.1471 43.3919 16.0049 43.7262 15.9253 44.132C15.8245 44.6474 15.7375 45.1713 15.6525 45.6782C15.6239 45.8518 15.5952 46.0253 15.5655 46.2C15.5379 46.3629 15.5114 46.5258 15.4849 46.6877L15.3405 47.5748H47.4151V2.09961H29.798Z" fill="url(#paint0_linear_4357_1553)"/>
  <path d="M15.6876 17.9089C15.7895 17.8151 15.902 17.7757 16.0113 17.7747L13.0629 14.8164H2.59711V15.8291H12.6448L15.2302 18.4232C15.3671 18.24 15.5178 18.0665 15.6876 17.9089Z" fill="url(#paint1_linear_4357_1553)"/>
  <path d="M16.3456 20.7835C15.2705 20.7835 14.3959 19.906 14.3959 18.8273C14.3959 17.7486 15.2705 16.8711 16.3456 16.8711C17.4207 16.8711 18.2953 17.7486 18.2953 18.8273C18.2953 19.906 17.4207 20.7835 16.3456 20.7835ZM16.3456 17.8838C15.8277 17.8838 15.4053 18.3066 15.4053 18.8273C15.4053 19.347 15.8266 19.7708 16.3456 19.7708C16.8635 19.7708 17.2859 19.348 17.2859 18.8273C17.2859 18.3066 16.8646 17.8838 16.3456 17.8838Z" fill="url(#paint2_linear_4357_1553)"/>
  <path d="M17.9206 37.6263C16.8455 37.6263 15.9709 36.7488 15.9709 35.6701C15.9709 34.5913 16.8455 33.7139 17.9206 33.7139C18.9957 33.7139 19.8703 34.5913 19.8703 35.6701C19.8703 36.7488 18.9957 37.6263 17.9206 37.6263ZM17.9206 34.7266C17.4027 34.7266 16.9803 35.1493 16.9803 35.6701C16.9803 36.1897 17.4016 36.6136 17.9206 36.6136C18.4385 36.6136 18.861 36.1908 18.861 35.6701C18.861 35.1504 18.4396 34.7266 17.9206 34.7266Z" fill="url(#paint3_linear_4357_1553)"/>
  <path d="M18.9629 30.5999C17.8877 30.5999 17.0132 29.7224 17.0132 28.6437C17.0132 27.565 17.8877 26.6875 18.9629 26.6875C20.038 26.6875 20.9125 27.565 20.9125 28.6437C20.9125 29.7224 20.038 30.5999 18.9629 30.5999ZM18.9629 27.7013C18.4449 27.7013 18.0225 28.124 18.0225 28.6448C18.0225 29.1644 18.4439 29.5883 18.9629 29.5883C19.4808 29.5883 19.9032 29.1655 19.9032 28.6448C19.9032 28.124 19.4818 27.7013 18.9629 27.7013Z" fill="url(#paint4_linear_4357_1553)"/>
  <path d="M16.6003 35.0619C16.8211 34.8074 17.0503 34.5582 17.2764 34.3079L10.4276 27.4362V22.4631L3.10228 15.1133V7.48438H2.09296V15.5328L9.41828 22.8827V27.8558L16.6003 35.0619Z" fill="url(#paint5_linear_4357_1553)"/>
  <path d="M18.1785 27.3772C18.2125 27.3271 18.2517 27.2888 18.2931 27.2558L14.9277 23.8779H9.92346V24.8906H14.5095L17.737 28.13C17.8644 27.8606 18.0278 27.6019 18.1785 27.3772Z" fill="url(#paint6_linear_4357_1553)"/>
  <path d="M37.6635 19.5384C36.5884 19.5384 35.7139 18.6609 35.7139 17.5822C35.7139 16.5034 36.5884 15.626 37.6635 15.626C38.7387 15.626 39.6132 16.5034 39.6132 17.5822C39.6132 18.6609 38.7387 19.5384 37.6635 19.5384ZM37.6635 16.6387C37.1456 16.6387 36.7232 17.0615 36.7232 17.5822C36.7232 18.1018 37.1445 18.5257 37.6635 18.5257C38.1815 18.5257 38.6039 18.1029 38.6039 17.5822C38.6039 17.0615 38.1825 16.6387 37.6635 16.6387Z" fill="url(#paint7_linear_4357_1553)"/>
  <path d="M37.0204 16.219C36.7932 16.4703 36.564 16.7184 36.3432 16.973L21.5196 2.09961H22.9481L37.0204 16.219Z" fill="url(#paint8_linear_4357_1553)"/>
  <path d="M39.4221 9.08398C39.0677 9.08398 38.7344 9.17982 38.4478 9.34701C38.1517 9.51846 37.9055 9.76551 37.7336 10.0626C37.568 10.3501 37.4725 10.6835 37.4725 11.0402C37.4725 12.1189 38.347 12.9964 39.4221 12.9964C40.4973 12.9964 41.3718 12.1189 41.3718 11.0402C41.3718 9.96145 40.4973 9.08398 39.4221 9.08398ZM39.4221 11.9837C38.9042 11.9837 38.4818 11.5609 38.4818 11.0402C38.4818 10.5205 38.9042 10.0978 39.4221 10.0978C39.9401 10.0978 40.3625 10.5205 40.3625 11.0402C40.3625 11.5609 39.9401 11.9837 39.4221 11.9837Z" fill="url(#paint9_linear_4357_1553)"/>
  <g opacity="0.1">
    <path d="M45.1109 4.41211H44.3128V44.4627H23.6826C23.0872 44.6938 22.4398 44.8311 21.6979 44.8748C21.5631 44.8823 21.4294 44.8865 21.2957 44.8865C20.7735 44.8865 20.2853 44.8311 19.8544 44.7811C19.5912 44.7502 19.3747 44.7268 19.1624 44.7119C18.8875 44.6927 18.6625 44.681 18.4598 44.681C18.3515 44.681 18.2539 44.6842 18.1647 44.6916C18.1287 44.8812 18.0936 45.0718 18.0607 45.2624H45.1099V4.41211H45.1109Z" fill="white"/>
    <path d="M0.798122 15.5335V7.48504V7.48397V2.10094C0.798122 1.3832 1.37761 0.801777 2.09295 0.801777H21.5196H22.9481C23.1201 0.801777 23.2878 0.835847 23.4438 0.900805C23.4459 0.90187 23.448 0.902938 23.4502 0.904003C23.603 0.968961 23.7441 1.06267 23.8641 1.18194L24.0763 1.39492C24.0763 1.39492 24.0764 1.39385 24.0753 1.39385L23.066 0.381137C22.946 0.260804 22.8049 0.167096 22.652 0.103202C22.6499 0.102137 22.6478 0.101082 22.6457 0.100017C22.4897 0.0350588 22.322 0.000976562 22.15 0.000976562H20.7215H1.29483C0.579489 0.000976562 0 0.582402 0 1.30014V6.68317V6.68424V14.7327C0 15.0777 0.136913 15.4078 0.378897 15.6517L1.17702 16.4525C0.933973 16.2086 0.798122 15.8774 0.798122 15.5335Z" fill="white"/>
    <path d="M28.8821 3.0179C28.6507 2.78575 28.5212 2.48013 28.5042 2.16599C28.5011 2.10316 28.5021 2.03927 28.5085 1.97645C28.5202 1.84972 28.5509 1.72407 28.6008 1.60267C28.8014 1.11708 29.2737 0.800801 29.7969 0.800801H31.2244H47.414C47.5626 0.800801 47.7027 0.830615 47.8354 0.87747C47.6603 0.368452 47.1837 0 46.6159 0H30.4274H28.9999C28.4756 0 28.0044 0.316276 27.8038 0.801867C27.7539 0.923264 27.7231 1.04892 27.7114 1.17564C27.7051 1.23847 27.704 1.30236 27.7072 1.36519C27.7231 1.68039 27.8536 1.98602 28.085 2.21817L28.8821 3.0179Z" fill="white"/>
    <path d="M14.0627 47.3656L14.2887 45.9823C14.3184 45.8098 14.3874 45.3903 14.3874 45.3903C14.4702 44.8983 14.5551 44.3903 14.6549 43.8813C14.7738 43.2733 14.9966 42.7621 15.3352 42.3191C15.7937 41.7217 16.4241 41.3405 17.2116 41.1829C17.5958 41.1051 18.0044 41.0668 18.4576 41.0668C18.7591 41.0668 19.0552 41.0828 19.4065 41.1062C19.6718 41.1254 19.9297 41.1531 20.1812 41.1818L20.2577 41.1903C20.6323 41.234 20.9825 41.2734 21.2914 41.2734C21.3551 41.2734 21.4177 41.2723 21.4814 41.2681C21.8719 41.2446 22.1691 41.1861 22.4175 41.0828C22.5629 41.0221 22.652 40.9848 22.6987 40.6451C22.7391 40.3501 22.7051 40.0456 22.5968 39.7378C22.1882 38.5771 22.3941 37.3951 23.1604 36.4643C23.0277 36.1119 23.0023 35.7391 23.0851 35.3728C23.1604 35.0278 23.3355 34.7094 23.586 34.4538C23.5361 34.292 23.4926 34.1173 23.4629 33.9331C23.2485 32.6382 23.8789 31.5019 25.1069 30.9738C25.3043 30.8907 25.4699 30.8374 25.611 30.7938L25.6354 30.7863C25.6758 30.7736 25.7161 30.7618 25.7554 30.7469C25.7554 30.7469 26.1544 30.6032 26.217 30.5797C26.0133 30.2326 25.7914 29.8801 25.5749 29.5361L25.3584 29.1933C24.9265 28.5043 24.4616 27.7663 23.9882 27.0326C23.4215 26.1572 23.2676 25.1797 23.5457 24.2053L23.5807 24.0839C23.6974 23.6782 23.7961 23.3342 23.8556 23.002C23.8906 22.8082 23.9033 22.5909 23.8917 22.3513C23.8068 20.6124 23.4194 18.8649 22.7422 17.16C22.2604 15.9439 21.6767 14.9099 20.9539 13.9973C20.6578 13.6245 20.3256 13.2795 19.9562 12.959C20.0242 13.0378 20.0921 13.1155 20.1558 13.1954C20.8775 14.108 21.4623 15.142 21.9441 16.3581C22.6223 18.063 23.0086 19.8094 23.0935 21.5495C23.1052 21.7891 23.0935 22.0063 23.0575 22.2001C22.998 22.5324 22.8993 22.8763 22.7826 23.282L22.7475 23.4034C22.4695 24.3768 22.6223 25.3554 23.1901 26.2307C23.6635 26.9644 24.1283 27.7024 24.5603 28.3914L24.7768 28.7343C24.9923 29.0772 25.2151 29.4307 25.4189 29.7779C25.3552 29.8013 24.9572 29.9451 24.9572 29.9451C24.918 29.96 24.8776 29.9717 24.8373 29.9845L24.8129 29.9919C24.6717 30.0356 24.5072 30.0899 24.3088 30.1719C23.0797 30.7001 22.4504 31.8363 22.6648 33.1312C22.6945 33.3165 22.738 33.4901 22.7879 33.652C22.5385 33.9075 22.3623 34.2259 22.2869 34.571C22.2041 34.9373 22.2307 35.31 22.3623 35.6625C21.596 36.5932 21.3901 37.7752 21.7987 38.936C21.907 39.2437 21.9409 39.5493 21.9006 39.8432C21.8539 40.1829 21.7648 40.2202 21.6193 40.2809C21.3699 40.3842 21.0738 40.4428 20.6833 40.4662C20.6206 40.4705 20.557 40.4715 20.4933 40.4715C20.1834 40.4715 19.8342 40.4311 19.4595 40.3885L19.3831 40.3799C19.1316 40.3523 18.8726 40.3235 18.6083 40.3043C18.257 40.2809 17.9609 40.2649 17.6595 40.2649C17.2063 40.2649 16.7977 40.3033 16.4135 40.381C15.626 40.5386 14.9956 40.9198 14.5371 41.5172C14.1985 41.9602 13.9767 42.4714 13.8568 43.0794C13.757 43.5885 13.6721 44.0964 13.5893 44.5884C13.5893 44.5884 13.5203 45.008 13.4906 45.1805L13.2645 46.5638C13.203 46.9397 13.3102 47.3241 13.5553 47.6148C13.7071 47.7937 13.9024 47.9258 14.1189 48.0003C14.0489 47.8001 14.0266 47.5818 14.0627 47.3656Z" fill="white"/>
  </g>
  <path d="M38.7779 9.67738C38.5519 9.92763 38.3226 10.1768 38.1018 10.4313L37.7336 10.0618L30.8073 3.11232L29.798 2.09961H31.2255L32.2348 3.11232L38.4478 9.3462L38.7779 9.67738Z" fill="url(#paint10_linear_4357_1553)"/>
  <path d="M65.7231 7.53818C66.2898 7.53818 66.4936 7.74264 66.4936 8.31129V22.9056C66.4936 23.4743 66.2898 23.6787 65.7231 23.6787H64.4314C64.0918 23.6787 63.8424 23.5424 63.6842 23.2922L58.1335 15.0627C57.1814 13.6762 56.2305 11.1758 56.2751 11.244H56.1392C56.1392 11.1758 56.638 13.8583 56.638 15.7676V22.9056C56.638 23.4743 56.4343 23.6787 55.8675 23.6787H54.6671C54.1004 23.6787 53.8743 23.4743 53.8743 22.9056V8.31129C53.8743 7.74264 54.1004 7.53818 54.6671 7.53818H55.9588C56.2984 7.53818 56.5478 7.65211 56.706 7.90129L62.2111 16.085C63.2533 17.6078 64.1374 19.9729 64.1141 19.9495H64.2499C64.2499 19.9718 63.7511 17.4033 63.7511 15.3577V8.31022C63.7511 7.74157 63.9549 7.53711 64.5216 7.53711H65.7231V7.53818Z" fill="white"/>
  <path d="M70.7771 7.49219C71.8416 7.49219 72.159 7.83296 72.159 8.85632V9.06077C72.159 10.1289 71.8416 10.4473 70.7771 10.4473H70.619C69.599 10.4473 69.2371 10.1289 69.2371 9.06077V8.85632C69.2371 7.83296 69.5545 7.49219 70.619 7.49219H70.7771ZM71.3205 11.903C71.8416 11.903 72.0231 12.0616 72.0231 12.5845V22.9736C72.0231 23.4964 71.8416 23.6785 71.3205 23.6785H70.0745C69.5534 23.6785 69.3953 23.4964 69.3953 22.9736V12.5845C69.3953 12.0616 69.5534 11.903 70.0745 11.903H71.3205Z" fill="white"/>
  <path d="M74.2435 16.2225C74.2435 13.245 75.9883 11.5625 79.4546 11.5625C82.0145 11.5625 83.6915 12.7445 84.3028 14.541C84.4843 15.1097 84.3484 15.3588 83.804 15.5644L82.8074 15.8828C82.264 16.0872 82.0145 15.9509 81.8108 15.4057C81.4255 14.3823 80.5871 13.8829 79.3411 13.8829C77.6875 13.8829 76.8713 14.6326 76.8713 16.1107V19.4747C76.8713 20.9069 77.7321 21.7024 79.3411 21.7024C80.5871 21.7024 81.4255 21.1795 81.8108 20.1338C82.0145 19.5886 82.264 19.497 82.8074 19.6791L83.8273 19.9741C84.3484 20.1785 84.5066 20.5193 84.3028 20.9975C83.51 23.0207 81.8331 24.0207 79.2508 24.0207C75.8981 24.0207 74.2435 22.3382 74.2435 19.3607V16.2225Z" fill="white"/>
  <path d="M88.2913 6.85653C88.8124 6.85653 88.9705 7.03863 88.9705 7.56149V11.8807C89.22 11.7667 90.4882 11.5623 91.6897 11.5623C94.8386 11.5623 96.402 13.0851 96.402 16.1317V22.9747C96.402 23.4976 96.2205 23.6797 95.6994 23.6797H94.4757C93.9546 23.6797 93.7731 23.4976 93.7731 22.9747V16.1999C93.7731 14.7218 92.9569 13.9721 91.3033 13.9721C90.1932 13.9721 89.4227 14.0861 88.9695 14.3129V22.9737C88.9695 23.4965 88.8113 23.6786 88.2902 23.6786H87.0442C86.5231 23.6786 86.3416 23.4965 86.3416 22.9737V7.56043C86.3416 7.03756 86.5231 6.85547 87.0442 6.85547H88.2913V6.85653Z" fill="white"/>
  <path d="M98.5098 16.4727C98.5098 13.2898 100.345 11.5625 103.767 11.5625C107.211 11.5625 109 13.5176 109 16.2683V17.6548C109 18.3139 108.66 18.6323 107.98 18.6323H101.138V19.4736C101.138 20.9517 102.066 21.7471 103.721 21.7471C104.989 21.7471 105.873 21.3382 106.394 20.5427C106.757 20.0199 107.006 19.9741 107.55 20.2701L108.343 20.7025C108.864 20.9527 108.954 21.3158 108.615 21.8387C107.731 23.2933 106.099 24.0207 103.721 24.0207C100.187 24.0207 98.5098 22.1337 98.5098 19.1563V16.4727ZM106.371 16.1085C106.371 14.6305 105.487 13.7892 103.765 13.7892C102.066 13.7892 101.138 14.6305 101.138 16.1085V16.609H106.371V16.1085Z" fill="white"/>
  <path d="M68.3743 42.0684L62.71 27.2696C62.5285 26.7926 62.3024 26.6562 61.758 26.6562H60.5576C60.0142 26.6562 59.8104 26.7702 59.6056 27.2931L53.9412 42.0695C53.7597 42.57 53.9412 42.8192 54.4623 42.8192H55.5046C56.4332 42.8192 56.7283 42.6829 56.9098 42.1376L61.1222 30.6272L65.271 42.1376C65.4525 42.6829 65.7464 42.8192 66.6762 42.8192H67.8542C68.3743 42.8181 68.5558 42.5679 68.3743 42.0684Z" fill="white"/>
  <path d="M69.9153 27.4508C69.9153 26.8822 70.1414 26.6777 70.7082 26.6777H71.9998C72.5666 26.6777 72.7703 26.8822 72.7703 27.4508V42.0452C72.7703 42.6138 72.5666 42.8183 71.9998 42.8183H70.7082C70.1414 42.8183 69.9153 42.6138 69.9153 42.0452V27.4508Z" fill="white"/>
  <defs>
    <linearGradient id="paint0_linear_4357_1553" x1="45.2282" y1="4.294" x2="12.0134" y2="37.3978" gradientUnits="userSpaceOnUse">
      <stop stop-color="#00FF00"/>
      <stop offset="1" stop-color="#00FFFF"/>
    </linearGradient>
    <linearGradient id="paint1_linear_4357_1553" x1="33.2468" y1="-7.72764" x2="0.0320743" y2="25.3761" gradientUnits="userSpaceOnUse">
      <stop stop-color="#00FF00"/>
      <stop offset="1" stop-color="#00FFFF"/>
    </linearGradient>
    <linearGradient id="paint2_linear_4357_1553" x1="38.029" y1="-2.92888" x2="4.81428" y2="30.1749" gradientUnits="userSpaceOnUse">
      <stop stop-color="#00FF00"/>
      <stop offset="1" stop-color="#00FFFF"/>
    </linearGradient>
    <linearGradient id="paint3_linear_4357_1553" x1="47.2104" y1="6.28261" x2="13.9956" y2="39.3864" gradientUnits="userSpaceOnUse">
      <stop stop-color="#00FF00"/>
      <stop offset="1" stop-color="#00FFFF"/>
    </linearGradient>
    <linearGradient id="paint4_linear_4357_1553" x1="44.2302" y1="3.29225" x2="11.0155" y2="36.396" gradientUnits="userSpaceOnUse">
      <stop stop-color="#00FF00"/>
      <stop offset="1" stop-color="#00FFFF"/>
    </linearGradient>
    <linearGradient id="paint5_linear_4357_1553" x1="35.7485" y1="-5.21781" x2="2.53377" y2="27.886" gradientUnits="userSpaceOnUse">
      <stop stop-color="#00FF00"/>
      <stop offset="1" stop-color="#00FFFF"/>
    </linearGradient>
    <linearGradient id="paint6_linear_4357_1553" x1="40.3476" y1="-0.602721" x2="7.13279" y2="32.501" gradientUnits="userSpaceOnUse">
      <stop stop-color="#00FF00"/>
      <stop offset="1" stop-color="#00FFFF"/>
    </linearGradient>
    <linearGradient id="paint7_linear_4357_1553" x1="48.0676" y1="7.14306" x2="14.8528" y2="40.2468" gradientUnits="userSpaceOnUse">
      <stop stop-color="#00FF00"/>
      <stop offset="1" stop-color="#00FFFF"/>
    </linearGradient>
    <linearGradient id="paint8_linear_4357_1553" x1="39.692" y1="-1.26074" x2="6.47718" y2="31.843" gradientUnits="userSpaceOnUse">
      <stop stop-color="#00FF00"/>
      <stop offset="1" stop-color="#00FFFF"/>
    </linearGradient>
    <linearGradient id="paint9_linear_4357_1553" x1="45.6864" y1="4.75462" x2="12.4716" y2="37.8584" gradientUnits="userSpaceOnUse">
      <stop stop-color="#00FF00"/>
      <stop offset="1" stop-color="#00FFFF"/>
    </linearGradient>
    <linearGradient id="paint10_linear_4357_1553" x1="40.5713" y1="-0.37848" x2="7.35649" y2="32.7253" gradientUnits="userSpaceOnUse">
      <stop stop-color="#00FF00"/>
      <stop offset="1" stop-color="#00FFFF"/>
    </linearGradient>
  </defs>
</svg>