<svg width="41" height="33" viewBox="0 0 41 33" fill="none" xmlns="http://www.w3.org/2000/svg">
<path fill-rule="evenodd" clip-rule="evenodd" d="M16.3005 6.03029e-07H24.012C27.4578 -2.91248e-05 30.1871 -5.2806e-05 32.3232 0.287129C34.5215 0.582681 36.3007 1.2054 37.7039 2.60858C39.1071 4.01176 39.7298 5.79104 40.0254 7.98933C40.3126 10.1254 40.3125 12.8547 40.3125 16.3005V16.512C40.3125 19.9578 40.3126 22.6871 40.0254 24.8232C39.7298 27.0215 39.1071 28.8007 37.7039 30.2039C36.3007 31.6071 34.5215 32.2298 32.3232 32.5254C30.1871 32.8126 27.4578 32.8125 24.012 32.8125H16.3005C12.8547 32.8125 10.1254 32.8126 7.98933 32.5254C5.79104 32.2298 4.01176 31.6071 2.60858 30.2039C1.2054 28.8007 0.582681 27.0215 0.287129 24.8232C-5.2806e-05 22.6871 -2.91248e-05 19.9578 6.03029e-07 16.512V16.3005C-2.91248e-05 12.8547 -5.2806e-05 10.1254 0.287129 7.98933C0.582681 5.79104 1.2054 4.01176 2.60858 2.60858C4.01176 1.2054 5.79104 0.582681 7.98933 0.287129C10.1254 -5.2806e-05 12.8547 -2.91248e-05 16.3005 6.03029e-07ZM8.36409 3.07455C6.47767 3.32817 5.39084 3.8038 4.59732 4.59732C3.8038 5.39084 3.32817 6.47767 3.07455 8.36409C2.81549 10.291 2.8125 12.831 2.8125 16.4063C2.8125 19.9815 2.81549 22.5215 3.07455 24.4484C3.32817 26.3348 3.8038 27.4217 4.59732 28.2152C5.39084 29.0087 6.47767 29.4843 8.36409 29.738C10.291 29.997 12.831 30 16.4062 30H23.9063C27.4815 30 30.0215 29.997 31.9484 29.738C33.8348 29.4843 34.9217 29.0087 35.7152 28.2152C36.5087 27.4217 36.9843 26.3348 37.238 24.4484C37.497 22.5215 37.5 19.9815 37.5 16.4063C37.5 12.831 37.497 10.291 37.238 8.36409C36.9843 6.47768 36.5087 5.39084 35.7152 4.59732C34.9217 3.8038 33.8348 3.32817 31.9484 3.07455C30.0215 2.81549 27.4815 2.8125 23.9063 2.8125H16.4063C12.831 2.8125 10.291 2.81549 8.36409 3.07455ZM7.82594 8.00599C8.32314 7.40935 9.20987 7.32874 9.80651 7.82594L13.8544 11.1992C15.6037 12.657 16.8182 13.6658 17.8436 14.3252C18.8361 14.9636 19.5092 15.1779 20.1563 15.1779C20.8033 15.1779 21.4764 14.9636 22.4689 14.3252C23.4943 13.6658 24.7088 12.657 26.4581 11.1992L30.506 7.82594C31.1026 7.32874 31.9894 7.40935 32.4866 8.00599C32.9838 8.60263 32.9031 9.48936 32.3065 9.98656L28.1881 13.4186C26.5262 14.8036 25.1792 15.9261 23.9903 16.6907C22.7519 17.4872 21.5458 17.9904 20.1563 17.9904C18.7667 17.9904 17.5606 17.4872 16.3222 16.6907C15.1333 15.9261 13.7863 14.8036 12.1244 13.4186L8.00599 9.98656C7.40935 9.48936 7.32874 8.60263 7.82594 8.00599Z" fill="#00FFFF"/>
</svg>
