<svg width="104" height="74" viewBox="0 0 104 74" fill="none" xmlns="http://www.w3.org/2000/svg">
<path d="M103.991 36.9703C103.99 36.9713 103.99 36.9727 103.991 36.9738L103.996 36.9822C103.997 36.9841 103.998 36.9862 103.998 36.9884L103.999 36.9937C104 36.9989 104 37.0043 103.999 37.0095C103.998 37.0152 103.996 37.0207 103.993 37.0256L103.992 37.0272C103.99 37.0299 103.988 37.0324 103.986 37.0348L70.319 73.9898C70.3168 73.9921 70.3144 73.9941 70.3116 73.9957L70.3091 73.9971C70.3049 73.9995 70.3001 74.0004 70.2953 73.9998C70.2909 73.9992 70.2868 73.9972 70.2835 73.9942L70.2819 73.9927C70.2786 73.9896 70.2761 73.9858 70.2746 73.9816L70.2733 73.9782C70.2716 73.9735 70.2708 73.9685 70.2708 73.9636L70.2708 0.0390511C70.2708 0.0344525 70.2714 0.0298799 70.2727 0.0254582L70.274 0.0208278C70.2753 0.0163081 70.2777 0.0121611 70.2809 0.00873016L70.2826 0.00688181C70.2858 0.00354909 70.2899 0.00128328 70.2944 0.000405589C70.2994 -0.000558242 70.3045 0.000207894 70.3089 0.00257429L70.3113 0.00381034C70.3142 0.00538683 70.3169 0.00745871 70.3192 0.00993515L103.991 36.9664C103.992 36.9675 103.992 36.9691 103.991 36.9703Z" fill="url(#paint0_linear_4142_4453)"/>
<path d="M1.88575e-06 58.4211L0 15.561L70.8746 15.561V58.4211H1.88575e-06Z" fill="url(#paint1_linear_4142_4453)"/>
<defs>
<linearGradient id="paint0_linear_4142_4453" x1="2.81083" y1="37.6979" x2="104.001" y2="37.6979" gradientUnits="userSpaceOnUse">
<stop stop-color="white" stop-opacity="0"/>
<stop offset="0.581731" stop-color="#00FFFF"/>
</linearGradient>
<linearGradient id="paint1_linear_4142_4453" x1="2.81083" y1="37.6979" x2="104.001" y2="37.6979" gradientUnits="userSpaceOnUse">
<stop stop-color="white" stop-opacity="0"/>
<stop offset="0.581731" stop-color="#00FFFF"/>
</linearGradient>
</defs>
</svg>
